<svg width="24" height="25" viewBox="0 0 24 25" fill="none" xmlns="http://www.w3.org/2000/svg">
<path d="M11.0054 25C9.09163 25 7.5332 23.2479 7.5332 21.0938C7.5332 20.6625 7.84431 20.3125 8.22765 20.3125C8.61098 20.3125 8.92209 20.6625 8.92209 21.0938C8.92209 22.3866 9.85729 23.4375 11.0054 23.4375C12.1536 23.4375 13.0888 22.3866 13.0888 21.0938C13.0888 20.6625 13.3999 20.3125 13.7832 20.3125C14.1665 20.3125 14.4776 20.6625 14.4776 21.0938C14.4776 23.2479 12.9194 25 11.0054 25Z" fill="#09090B"/>
<path d="M18.6442 21.875H3.36641C2.47292 21.875 1.74609 21.0573 1.74609 20.0521C1.74609 19.5187 1.9526 19.0136 2.3127 18.6666C2.33593 18.6438 2.36085 18.623 2.38679 18.6041C3.74601 17.2697 4.52387 15.35 4.52387 13.3228V10.4166C4.52387 6.39591 7.4322 3.125 11.0053 3.125C11.1535 3.125 11.3137 3.12805 11.4619 3.15628C11.8405 3.22704 12.0961 3.63026 12.0331 4.05521C11.9702 4.48017 11.6053 4.7678 11.234 4.69685C11.1599 4.6833 11.0785 4.6875 11.0053 4.6875C8.19802 4.6875 5.91276 7.25727 5.91276 10.4166V13.3228C5.91276 15.8396 4.93213 18.2209 3.22484 19.8551C3.21094 19.8677 3.1989 19.8792 3.18398 19.8906C3.15906 19.9261 3.13498 19.9802 3.13498 20.0521C3.13498 20.1937 3.24061 20.3125 3.36641 20.3125H18.6442C18.7702 20.3125 18.8758 20.1937 18.8758 20.0521C18.8758 19.9791 18.8517 19.9261 18.8258 19.8906C18.8119 19.8792 18.7998 19.8677 18.7859 19.8551C17.0776 18.2198 16.098 15.8396 16.098 13.3228V12.1876C16.098 11.7563 16.4091 11.4063 16.7924 11.4063C17.1758 11.4063 17.4869 11.7563 17.4869 12.1876V13.3228C17.4869 15.3511 18.2656 17.2718 19.6267 18.6073C19.6516 18.626 19.6757 18.6459 19.6979 18.6678C20.0582 19.0136 20.2647 19.5187 20.2647 20.0521C20.2647 21.0573 19.5378 21.875 18.6442 21.875Z" fill="#09090B"/>
<path d="M17.4871 10.4166C14.9343 10.4166 12.8574 8.08029 12.8574 5.2084C12.8574 2.3365 14.9343 0 17.4871 0C20.0399 0 22.1166 2.3365 22.1166 5.2084C22.1166 8.08029 20.0399 10.4166 17.4871 10.4166ZM17.4871 1.5625C15.7 1.5625 14.2463 3.19786 14.2463 5.2084C14.2463 7.21874 15.7 8.8541 17.4871 8.8541C19.2741 8.8541 20.7277 7.21874 20.7277 5.2084C20.7277 3.19786 19.2741 1.5625 17.4871 1.5625Z" fill="#09090B"/>
</svg>
