<svg width="25" height="24" viewBox="0 0 25 24" fill="none" xmlns="http://www.w3.org/2000/svg">
<g clip-path="url(#clip0_685_2025)">
<path d="M3.5625 21.1249C3.38016 21.1249 3.2053 21.1973 3.07636 21.3263C2.94743 21.4552 2.875 21.6301 2.875 21.8124C2.875 21.9947 2.94743 22.1696 3.07636 22.2985C3.2053 22.4275 3.38016 22.4999 3.5625 22.4999H21.4375C21.6198 22.4999 21.7947 22.4275 21.9236 22.2985C22.0526 22.1696 22.125 21.9947 22.125 21.8124C22.125 21.6301 22.0526 21.4552 21.9236 21.3263C21.7947 21.1973 21.6198 21.1249 21.4375 21.1249H19.375V3.9374C19.375 3.39039 19.1577 2.86578 18.7709 2.47899C18.3841 2.09219 17.8595 1.8749 17.3125 1.8749H16.625V1.1874C16.625 1.08899 16.6038 0.991731 16.563 0.902197C16.5222 0.812663 16.4626 0.732939 16.3883 0.668415C16.314 0.60389 16.2267 0.556069 16.1323 0.528182C16.0379 0.500295 15.9387 0.492994 15.8413 0.506771L6.21625 1.88177C6.05224 1.90496 5.90211 1.98659 5.79348 2.11164C5.68485 2.23669 5.62503 2.39675 5.625 2.5624V21.1249H3.5625ZM16.625 3.2499H17.3125C17.4948 3.2499 17.6697 3.32233 17.7986 3.45126C17.9276 3.58019 18 3.75506 18 3.9374V21.1249H16.625V3.2499ZM13.1875 14.2499C12.808 14.2499 12.5 13.6339 12.5 12.8749C12.5 12.1159 12.808 11.4999 13.1875 11.4999C13.567 11.4999 13.875 12.1159 13.875 12.8749C13.875 13.6339 13.567 14.2499 13.1875 14.2499Z" fill="#737373"/>
</g>
<defs>
<clipPath id="clip0_685_2025">
<rect width="22" height="22" fill="white" transform="translate(1.5 0.5)"/>
</clipPath>
</defs>
</svg>
