<svg width="18" height="20" viewBox="0 0 18 20" fill="none" xmlns="http://www.w3.org/2000/svg">
<g clip-path="url(#clip0_633_1595)">
<path d="M17.3602 18.2812L13.27 13.6797C14.2839 12.2891 14.895 10.5078 14.895 8.56641C14.895 4.11328 11.6832 0.5 7.72483 0.5C3.76302 0.5 0.554688 4.11328 0.554688 8.56641C0.554688 13.0195 3.76302 16.6328 7.72483 16.6328C9.45052 16.6328 11.0304 15.9492 12.2665 14.8086L16.3568 19.4062C16.6346 19.7188 17.0825 19.7188 17.3602 19.4062C17.638 19.0977 17.638 18.5898 17.3602 18.2812ZM7.72483 15.0273C4.55469 15.0273 1.9783 12.1289 1.9783 8.56641C1.9783 5.00391 4.55469 2.10156 7.72483 2.10156C10.8915 2.10156 13.4714 5.00391 13.4714 8.56641C13.4714 12.1289 10.8915 15.0273 7.72483 15.0273Z" fill="#718EBF"/>
</g>
<defs>
<clipPath id="clip0_633_1595">
<rect width="17.0139" height="19.1406" fill="white" transform="translate(0.554688 0.5)"/>
</clipPath>
</defs>
</svg>
