<svg width="26" height="26" viewBox="0 0 26 26" fill="none" xmlns="http://www.w3.org/2000/svg">
<g clip-path="url(#clip0_685_2017)">
<path d="M23.1985 9.91406H22.6678C22.4954 9.37451 22.2778 8.85039 22.0172 8.34683L22.3931 7.97095C23.3045 7.06055 23.2801 5.60156 22.3934 4.71582L21.2845 3.60693C20.3993 2.72056 18.94 2.69487 18.0293 3.60659L17.6532 3.98276C17.1496 3.72222 16.6254 3.50464 16.0859 3.33223V2.80142C16.0859 1.53242 15.0535 0.5 13.7845 0.5H12.2155C10.9465 0.5 9.91406 1.53242 9.91406 2.80142V3.33223C9.37456 3.50459 8.85039 3.72217 8.34683 3.98276L7.971 3.60693C7.06216 2.69702 5.60293 2.71836 4.71592 3.60664L3.60688 4.71558C2.72056 5.60093 2.69492 7.06001 3.60659 7.9707L3.98276 8.34687C3.72217 8.85044 3.50464 9.37451 3.33223 9.91411H2.80146C1.53247 9.91406 0.5 10.9465 0.5 12.2155V13.7845C0.5 15.0535 1.53247 16.0859 2.80146 16.0859H3.33223C3.50464 16.6255 3.72217 17.1496 3.98276 17.6532L3.60688 18.0291C2.69551 18.9395 2.71992 20.3984 3.60659 21.2842L4.71553 22.3931C5.60073 23.2794 7.06001 23.3051 7.97065 22.3934L8.34683 22.0172C8.85039 22.2778 9.37456 22.4954 9.91406 22.6678V23.1986C9.91406 24.4676 10.9465 25.5 12.2155 25.5H13.7845C15.0535 25.5 16.086 24.4676 16.086 23.1986V22.6678C16.6255 22.4954 17.1497 22.2778 17.6532 22.0172L18.0291 22.3931C18.9379 23.303 20.3971 23.2816 21.2841 22.3934L22.3932 21.2844C23.2795 20.399 23.3051 18.9399 22.3935 18.0292L22.0173 17.6531C22.2779 17.1495 22.4954 16.6254 22.6678 16.0858H23.1986C24.4676 16.0858 25.5 15.0534 25.5 13.7844V12.2154C25.5 10.9465 24.4675 9.91406 23.1985 9.91406ZM13 18.4395C10.0006 18.4395 7.56055 15.9993 7.56055 13C7.56055 10.0007 10.0006 7.56055 13 7.56055C15.9994 7.56055 18.4395 10.0007 18.4395 13C18.4395 15.9993 15.9994 18.4395 13 18.4395Z" fill="#737373"/>
</g>
<defs>
<clipPath id="clip0_685_2017">
<rect width="25" height="25" fill="white" transform="translate(0.5 0.5)"/>
</clipPath>
</defs>
</svg>
